<svg width="48" height="48" viewBox="0 0 48 48" fill="none" xmlns="http://www.w3.org/2000/svg">
<g id="logo">
<rect width="48" height="48" rx="15" fill="white"/>
<path id="Vector 1 (Stroke)" fill-rule="evenodd" clip-rule="evenodd" d="M14.8285 11.2285C16.8167 11.2285 18.4285 12.8403 18.4285 14.8285V24.4802L30.6258 12.2829C32.0317 10.877 34.3111 10.877 35.717 12.2829C37.1228 13.6888 37.1228 15.9682 35.717 17.3741L29.0911 23.9999L35.717 30.6258C37.1228 32.0317 37.1228 34.3111 35.717 35.717C34.3111 37.1228 32.0317 37.1228 30.6258 35.717L23.9999 29.0911L17.3741 35.717C16.3445 36.7466 14.7961 37.0546 13.4509 36.4973C12.1056 35.9401 11.2285 34.6274 11.2285 33.1714V14.8285C11.2285 12.8403 12.8403 11.2285 14.8285 11.2285Z" fill="#141D24"/>
</g>
</svg>
